<svg width="661" height="177" viewBox="0 0 661 177" fill="none" xmlns="http://www.w3.org/2000/svg">
<g clip-path="url(#clip0_3769_131614)">
<path d="M150.252 68.3741V11.0283H171.717C176.12 11.0283 179.972 11.5797 182.724 13.2339C185.476 14.8881 188.228 17.0937 189.329 19.8508C190.429 22.6078 191.53 25.9162 191.53 29.776C191.53 33.6358 190.98 36.9442 189.329 39.7012C187.677 42.4582 185.476 44.6638 182.724 46.318C179.972 47.9722 176.12 48.5237 171.717 48.5237H157.407V40.2526H170.065C172.817 40.2526 175.019 39.7012 176.12 39.1498C177.771 38.047 178.871 36.9442 179.972 35.29C181.073 33.6358 181.073 31.9816 181.073 29.776C181.073 27.5704 180.523 25.9162 179.972 24.262C179.422 22.6078 177.771 21.505 176.12 20.4022C174.468 19.2993 172.267 19.2993 169.515 19.2993H160.159V67.8227H150.252V68.3741Z" fill="white"/>
<path d="M200.887 68.3741V11.0283H222.351C226.754 11.0283 230.607 11.5797 233.359 13.2339C236.111 14.8881 238.863 17.0937 239.963 19.8508C241.064 22.6078 242.165 25.9162 242.165 29.2246C242.715 33.0844 242.165 35.8414 240.514 38.5984C238.863 41.3554 236.661 43.561 233.909 44.6638C231.157 46.318 227.305 46.8694 222.902 46.8694H207.491V38.5984H221.251C224.002 38.5984 226.204 38.047 227.305 37.4956C228.956 36.9442 230.057 35.8414 231.157 34.1872C231.708 32.533 232.258 30.8788 232.258 29.2246C232.258 27.019 231.708 25.3648 231.157 24.262C230.607 22.6078 228.956 21.505 227.305 20.9536C225.654 20.4022 223.452 19.8508 220.7 19.8508H211.344V68.3741H200.887ZM230.607 42.4582L244.917 68.3741H233.359L219.599 42.4582H230.607Z" fill="white"/>
<path d="M252.07 68.3741V11.0283H289.496V19.8508H262.527V35.29H287.294V44.1124H262.527V59.5517H289.496V68.3741H252.07Z" fill="white"/>
<path d="M331.326 26.4672C331.326 24.2616 330.225 22.056 328.023 20.9532C325.822 19.8504 323.62 18.7476 320.318 18.7476C318.117 18.7476 316.466 19.299 314.814 19.8504C313.163 20.4018 312.063 21.5046 311.512 22.6074C310.962 23.7102 310.411 24.813 310.411 26.4672C310.411 27.57 310.962 28.6728 311.512 29.7756C312.063 30.8784 312.613 31.4298 313.714 31.9812C314.814 32.5326 315.915 33.084 317.016 33.6354C318.117 34.1868 319.217 34.1868 320.318 34.7382L325.822 35.8411C328.023 36.3925 330.225 36.9439 331.876 38.0467C334.077 39.1495 335.729 40.2523 337.38 41.3551C339.031 42.4579 340.132 44.1121 341.232 46.3177C342.333 47.9719 342.883 50.1775 342.883 52.9345C342.883 56.2429 341.783 58.9999 340.132 61.7569C338.48 64.514 335.729 66.1682 332.426 67.8224C329.124 69.4766 325.272 70.028 320.869 70.028C316.466 70.028 312.613 69.4766 309.311 67.8224C306.008 66.1682 303.257 64.514 301.605 61.7569C299.954 58.9999 298.854 55.6915 298.854 51.8317H308.21C308.21 54.0373 308.76 55.6915 309.861 56.7943C310.962 57.8971 312.613 58.9999 314.264 59.5513C315.915 60.1027 318.117 60.6541 320.318 60.6541C322.52 60.6541 324.721 60.1027 326.372 59.5513C328.023 58.9999 329.675 57.8971 330.225 56.7943C331.326 55.6915 331.876 54.0373 331.876 52.3831C331.876 50.7289 331.326 49.6261 330.775 48.5233C329.674 47.4205 328.574 46.8691 326.923 46.3177C325.272 45.7663 323.62 45.2149 321.419 44.6635L314.814 43.0093C309.861 41.9065 306.559 39.7009 303.807 37.4953C301.055 35.2897 299.954 31.9812 299.954 27.57C299.954 24.2616 301.055 20.9532 302.706 18.7476C304.357 16.542 307.109 14.3364 310.411 12.6822C313.714 11.028 317.016 10.4766 321.419 10.4766C325.272 10.4766 329.124 11.028 331.876 12.6822C334.628 14.3364 337.38 15.9906 339.031 18.7476C340.682 21.5046 341.783 24.2616 341.783 27.57H331.326V26.4672Z" fill="white"/>
<path d="M361.596 11.0283V68.3741H351.139V11.0283H361.596Z" fill="white"/>
<path d="M392.417 68.3741H373.154V11.0283H392.968C398.472 11.0283 403.425 12.1311 407.828 14.3367C411.681 16.5423 414.983 19.8508 417.184 24.262C419.386 28.6732 420.487 33.6358 420.487 39.7012C420.487 45.7666 419.386 50.7293 417.184 55.1405C414.983 59.5517 411.681 62.8601 407.828 65.0657C403.425 67.2713 398.472 68.3741 392.417 68.3741ZM383.611 59.0003H392.417C396.27 59.0003 399.572 58.4489 402.324 56.7947C405.076 55.1405 406.727 52.9349 408.378 50.1779C410.029 47.4208 410.58 43.561 410.58 39.1498C410.58 34.7386 410.029 30.8788 408.378 28.1218C406.727 25.3648 404.526 23.1592 401.774 22.0564C399.022 20.4022 395.72 19.8508 391.867 19.8508H383.061V59.0003H383.611Z" fill="white"/>
<path d="M430.393 68.3741V11.0283H467.818V19.8508H440.299V35.29H465.066V44.1124H440.299V59.5517H467.818V68.3741H430.393Z" fill="white"/>
<path d="M525.057 11.0283V68.3741H515.7L488.732 29.2246H488.182V68.3741H477.725V11.0283H487.081L514.049 50.1779H514.6V11.0283H525.057Z" fill="white"/>
<path d="M533.863 19.2993V11.0283H579.544V19.8508H561.932V68.3741H551.475V19.2993H533.863Z" fill="white"/>
<path d="M596.606 11.0283V16.5423C596.606 18.1965 596.056 19.8508 595.506 21.505C594.955 23.1592 593.854 24.8134 592.754 26.4676C591.653 28.1218 590.552 29.2246 588.901 30.3274L584.498 27.5704C585.599 25.9162 586.149 24.262 587.25 22.6078C587.8 20.9536 588.351 18.7479 588.351 16.5423V11.0283H596.606Z" fill="white"/>
<path d="M636.232 26.4672C636.232 24.2616 635.132 22.056 632.93 20.9532C630.729 19.8504 628.527 18.7476 625.225 18.7476C623.023 18.7476 621.372 19.299 619.721 19.8504C618.07 20.4018 616.969 21.5046 616.419 22.6074C615.868 23.7102 615.318 24.813 615.318 26.4672C615.318 27.57 615.868 28.6728 616.419 29.7756C616.969 30.8784 617.52 31.4298 618.62 31.9812C619.721 32.5326 620.822 33.084 621.923 33.6354C623.023 34.1868 624.124 34.1868 625.225 34.7382L630.729 35.8411C632.93 36.3925 635.131 36.9439 636.783 38.0467C638.984 39.1495 640.635 40.2523 642.286 41.3551C643.937 42.4579 645.038 44.1121 646.139 46.3177C647.24 47.9719 647.79 50.1775 647.79 52.9345C647.79 56.2429 646.689 58.9999 645.038 61.7569C643.387 64.514 640.635 66.1682 637.883 67.8224C634.581 69.4766 630.729 70.028 626.326 70.028C621.923 70.028 618.07 69.4766 614.768 67.8224C611.465 66.1682 608.714 64.514 607.062 61.7569C605.411 58.9999 604.311 55.6915 604.311 51.8317H614.768C614.768 54.0373 615.318 55.6915 616.419 56.7943C617.52 57.8971 619.171 58.9999 620.822 59.5513C622.473 60.1027 624.674 60.6541 626.876 60.6541C629.077 60.6541 631.279 60.1027 632.93 59.5513C634.581 58.9999 636.232 57.8971 636.783 56.7943C637.883 55.6915 638.434 54.0373 638.434 52.3831C638.434 50.7289 637.883 49.6261 637.333 48.5233C636.232 47.4205 635.132 46.8691 633.48 46.3177C631.829 45.7663 630.178 45.2149 627.977 44.6635L621.372 43.0093C616.419 41.9065 613.117 39.7009 610.365 37.4953C607.613 35.2897 606.512 31.9812 606.512 27.57C606.512 24.2616 607.613 20.9532 609.264 18.7476C610.915 16.542 613.667 14.3364 616.969 12.6822C620.271 11.028 623.574 10.4766 627.977 10.4766C631.829 10.4766 635.682 11.028 638.434 12.6822C641.186 14.3364 643.938 15.9906 645.589 18.7476C647.24 21.5046 648.341 24.2616 648.341 27.57H636.232V26.4672Z" fill="white"/>
<path d="M199.234 113.589H188.777C188.227 111.935 187.677 110.28 187.126 109.178C186.576 108.075 185.475 106.972 184.374 105.869C183.274 104.766 181.622 104.215 180.522 103.664C178.871 103.112 177.219 103.112 175.568 103.112C172.266 103.112 169.514 103.664 167.313 105.318C165.111 106.972 162.91 109.178 161.809 111.935C160.708 114.692 159.608 118.551 159.608 122.963C159.608 127.374 160.158 131.234 161.809 133.991C162.91 136.748 165.111 139.505 167.313 140.607C169.514 141.71 172.266 142.813 175.568 142.813C177.219 142.813 178.871 142.813 180.522 142.262C182.173 141.71 183.274 141.159 184.374 140.056C185.475 138.953 186.576 137.85 187.677 136.748C188.777 135.645 189.328 133.991 189.328 132.336H199.785C199.234 135.093 198.684 137.85 197.033 140.056C195.932 142.262 194.281 144.467 192.08 146.121C189.878 147.776 187.677 149.43 184.925 150.533C182.173 151.635 178.871 152.187 175.568 152.187C170.615 152.187 166.212 151.084 161.809 148.878C157.406 146.673 154.654 143.364 152.453 138.953C150.251 134.542 149.15 129.028 149.15 122.963C149.15 116.897 150.251 111.383 152.453 106.972C154.654 102.561 157.956 99.2523 161.809 97.0467C165.662 94.8411 170.065 93.7383 175.018 93.7383C178.32 93.7383 181.072 94.2897 183.824 94.8411C186.576 95.9439 188.777 97.0467 190.979 98.7009C193.18 100.355 194.831 102.561 196.483 104.766C198.134 107.523 199.234 110.28 199.234 113.589Z" fill="white"/>
<path d="M208.041 151.636V94.29H218.498V142.813H243.815V151.636H208.041Z" fill="white"/>
<path d="M288.395 94.29H298.853V131.785C298.853 135.645 297.752 139.505 296.101 142.813C293.899 146.122 291.698 148.327 287.845 149.982C284.543 151.636 280.14 152.739 275.737 152.739C270.783 152.739 266.931 151.636 263.629 149.982C260.326 148.327 257.574 145.57 255.373 142.813C253.171 140.056 252.621 136.197 252.621 131.785V94.29H263.078V130.683C263.078 132.888 263.629 135.094 264.729 137.299C265.83 139.505 267.481 140.608 269.132 141.711C270.783 142.813 272.435 143.365 275.186 143.365C277.938 143.365 280.14 142.813 281.791 141.711C283.992 140.608 285.093 138.954 286.194 137.299C287.295 135.645 287.845 133.44 287.845 130.683V94.29H288.395Z" fill="white"/>
<path d="M308.76 151.636V94.29H330.775C335.178 94.29 338.48 94.8414 341.232 96.4956C343.984 97.5984 346.185 99.8041 347.286 102.01C348.387 104.215 349.488 106.972 349.488 109.729C349.488 111.935 348.937 114.141 348.387 115.795C347.286 117.449 346.185 118.552 344.534 119.655C342.883 120.757 341.232 121.309 339.581 121.86V122.412C341.782 122.412 343.433 122.963 345.635 124.066C347.836 125.169 348.937 126.823 350.038 129.028C351.139 131.234 351.689 133.44 351.689 136.748C351.689 139.505 351.139 142.262 349.488 145.019C347.836 147.776 345.635 149.43 342.883 150.533C340.131 151.636 336.279 152.739 331.876 152.739H308.76V151.636ZM319.217 118.552H329.674C331.325 118.552 332.976 118 334.627 117.449C336.279 116.898 337.379 115.795 337.93 114.692C339.03 113.589 339.03 111.935 339.03 110.281C339.03 108.075 338.48 106.421 336.829 104.767C335.178 103.112 332.976 102.561 329.674 102.561H319.217V118.552ZM319.217 142.813H330.224C334.077 142.813 336.829 142.262 338.48 140.608C340.131 138.954 341.232 137.299 341.232 135.094C341.232 133.44 340.682 131.785 340.131 130.683C339.03 129.58 337.93 128.477 336.279 127.374C334.627 126.823 332.976 126.271 330.775 126.271H319.217V142.813Z" fill="white"/>
<path d="M50.084 27.0186C35.7743 27.0186 23.666 38.598 23.666 53.4858C23.666 68.3737 35.2239 79.9531 50.084 79.9531C64.9441 79.9531 76.502 68.3737 76.502 53.4858C76.502 38.598 64.9441 27.0186 50.084 27.0186Z" fill="white"/>
<path d="M82.5558 91.5325C93.5633 82.1587 100.168 68.3737 100.168 52.9344C100.168 25.3643 77.6024 2.75684 50.0837 2.75684C22.565 2.75684 -0.000406591 25.9157 -0.000406591 53.4858C-0.000406591 68.9251 7.15446 82.7101 17.6116 92.0839L-0.550781 141.71C-0.550781 142.262 -0.000406591 142.813 0.549968 142.813L22.0146 136.196L34.1228 154.392C34.6732 154.944 35.2236 154.944 35.2236 154.392L50.0837 113.589L64.9438 154.392C64.9438 154.944 66.0446 154.944 66.0446 154.392L78.1528 136.196L99.067 142.262C99.6174 142.262 100.168 141.71 99.6174 141.159L82.5558 91.5325ZM50.0837 89.8783C30.2702 89.8783 13.759 73.3363 13.759 53.4858C13.759 33.6353 30.2702 17.0933 50.0837 17.0933C69.8972 17.0933 86.4084 33.6353 86.4084 53.4858C86.4084 73.3363 70.4476 89.8783 50.0837 89.8783Z" fill="white"/>
</g>
<defs>
<clipPath id="clip0_3769_131614">
<rect width="661" height="177" fill="white"/>
</clipPath>
</defs>
</svg>
