<?xml version="1.0" encoding="utf-8"?>
<!-- Generator: Adobe Illustrator 27.1.1, SVG Export Plug-In . SVG Version: 6.00 Build 0)  -->
<svg version="1.1" id="Layer_2_00000026862786026503815490000013239465549819716523_"
	 xmlns="http://www.w3.org/2000/svg" xmlns:xlink="http://www.w3.org/1999/xlink" x="0px" y="0px" viewBox="0 0 251.5 336.8"
	 style="enable-background:new 0 0 251.5 336.8;" xml:space="preserve">
<style type="text/css">
	.st0{fill:#F5F2ED;}
</style>
<g id="Layer_1-2">
	<g>
		<path class="st0" d="M244.4,201.5c-1.4,0-2.5-1.1-2.5-2.5v-77.4C241.9,57.3,189.6,5,125.4,5S8.8,57.3,8.8,121.6V199
			c0,1.4-1.1,2.5-2.5,2.5s-2.5-1.1-2.5-2.5v-77.4C3.8,54.5,58.3,0,125.4,0s121.6,54.5,121.6,121.6V199
			C246.9,200.4,245.8,201.5,244.4,201.5z"/>
		<path class="st0" d="M125.4,288.5c-49.4,0-89.6-40.2-89.6-89.6v-77.4C35.8,72.2,76,32,125.4,32s89.6,40.2,89.6,89.6V199
			C214.9,248.4,174.8,288.5,125.4,288.5z M125.4,45c-42.2,0-76.6,34.3-76.6,76.6V199c0,42.2,34.3,76.6,76.6,76.6
			s76.6-34.4,76.6-76.6v-77.4C201.9,79.3,167.6,45,125.4,45z"/>
	</g>
	<path class="st0" d="M98.5,115.9h27.7c15.8,0,26,10.7,26,23.8s-10.4,23.8-26,23.8h-14.4v45.2H98.5L98.5,115.9L98.5,115.9z
		 M125.6,158.3c13.8,0,20.9-8.3,20.9-18.7s-7.1-18.7-20.9-18.7h-13.8v37.4L125.6,158.3L125.6,158.3z"/>
</g>
<g id="Layer_2-2">
	<g>
		<path class="st0" d="M0,224.6l16.5-2.9l1.1,6.4c0.2,1.2,0.2,2.3-0.1,3.3s-0.8,1.7-1.5,2.3s-1.6,1-2.7,1.2s-2.1,0.1-2.9-0.2
			s-1.6-0.9-2.2-1.7c-0.6-0.8-1-1.8-1.2-3.1l-0.8-4.3l2.8-0.5l0.7,3.8c0.1,0.7,0.3,1.2,0.6,1.6s0.6,0.7,1,0.8s0.9,0.2,1.4,0.1
			c0.6-0.1,1-0.3,1.3-0.6c0.3-0.3,0.6-0.7,0.7-1.1s0.1-1,0-1.7l-0.4-2.3l-13.6,2.4L0,224.6L0,224.6z M9,232.1l-6.8,5.4l-0.7-3.8
			l6.8-5.3L9,232.1L9,232.1z"/>
		<path class="st0" d="M4.3,244.9l15.8-5.4l3.6,10.5l-2.8,0.9l-2.5-7.2l-3.8,1.3l2.3,6.7l-2.8,0.9l-2.3-6.7l-3.8,1.3l2.5,7.3
			l-2.8,0.9L4.3,244.9L4.3,244.9z"/>
		<path class="st0" d="M14.1,268.5l-2.8-5.2l14.7-7.9l2.8,5.2c0.8,1.5,1.2,2.9,1.2,4.3c0,1.4-0.4,2.6-1.2,3.8c-0.8,1.2-2,2.2-3.5,3
			c-1.5,0.8-3,1.2-4.4,1.3c-1.4,0-2.7-0.3-3.9-1.1C15.8,271.1,14.9,270,14.1,268.5L14.1,268.5z M15.6,265l1.1,2
			c0.5,0.9,1.1,1.6,1.7,2c0.7,0.5,1.4,0.6,2.3,0.6c0.9-0.1,1.8-0.4,2.9-1c1.1-0.6,1.9-1.2,2.4-1.9s0.8-1.4,0.8-2.2s-0.3-1.6-0.8-2.6
			l-1.1-2L15.6,265L15.6,265z"/>
		<path class="st0" d="M22.6,282.6l13.3-10.2l6.7,8.7l-2.3,1.8l-4.5-5.9l-3.2,2.4l4.1,5.3l-2.3,1.8l-4.1-5.3l-5.5,4.2L22.6,282.6
			L22.6,282.6z"/>
		<path class="st0" d="M48.8,287.7l-12,11.7l-2.4-2.5l12-11.7L48.8,287.7L48.8,287.7z"/>
		<path class="st0" d="M64,300.6l-10.3,13.1l-2.4-1.9l0.8-12.7l-0.1-0.1l-6.5,8.3l-2.8-2.2L53.1,292l2.4,1.9l-0.9,12.7l0.1,0.1
			l6.5-8.3L64,300.6L64,300.6z"/>
		<path class="st0" d="M69.8,323.3l6.8-15.3l6,2.6c1.2,0.5,2,1.2,2.6,2s1,1.7,1,2.6s-0.1,2-0.6,3c-0.4,1-1.1,1.8-1.8,2.4
			s-1.7,0.9-2.7,1s-2.1-0.1-3.3-0.7l-3.8-1.7l1.2-2.6l3.3,1.5c0.6,0.3,1.2,0.4,1.7,0.4s0.9-0.2,1.3-0.5c0.4-0.3,0.7-0.7,0.9-1.2
			c0.2-0.5,0.3-1,0.3-1.5c0-0.5-0.2-0.9-0.5-1.3c-0.3-0.4-0.8-0.7-1.4-1l-2.2-1l-5.6,12.6L69.8,323.3L69.8,323.3z"/>
		<path class="st0" d="M88.2,330.8l4.3-16.2l6.3,1.7c1.2,0.3,2.2,0.8,2.9,1.5s1.2,1.5,1.5,2.4c0.2,0.9,0.2,1.9-0.1,3
			s-0.8,1.9-1.4,2.6c-0.7,0.6-1.5,1.1-2.5,1.2c-1,0.2-2.1,0.1-3.3-0.2l-4.2-1.1l0.7-2.8l3.7,1c0.7,0.2,1.2,0.2,1.7,0.2
			s0.9-0.2,1.2-0.5s0.5-0.7,0.7-1.2c0.1-0.5,0.2-1,0-1.4c-0.1-0.4-0.4-0.8-0.7-1.1c-0.4-0.3-0.9-0.5-1.5-0.7l-2.3-0.6l-3.5,13.4
			L88.2,330.8L88.2,330.8z M98.8,325.7l2,8.4l-3.7-1l-1.9-8.4L98.8,325.7L98.8,325.7z"/>
		<path class="st0" d="M107.2,335.1l1.8-16.6l11.1,1.2l-0.3,2.9l-7.6-0.8l-0.4,4l7,0.8l-0.3,2.9l-7-0.8l-0.4,4l7.6,0.8l-0.3,2.9
			L107.2,335.1L107.2,335.1z"/>
		<path class="st0" d="M125,320.1l4.3-0.3l5.3,10.9h0.2l3.8-11.5l4.3-0.3l1.2,16.7l-3.4,0.2l-0.8-10.9h-0.1l-3.5,11.1l-2.3,0.2
			l-5-10.5h-0.1l0.8,10.9l-3.4,0.2L125,320.1L125,320.1z"/>
		<path class="st0" d="M151.9,317.7l3.7,16.3l-3.4,0.8l-3.7-16.3L151.9,317.7z"/>
		<path class="st0" d="M162.8,331.1l-5.6-15.8l10.5-3.7l1,2.8l-7.2,2.5l1.3,3.8l6.7-2.4l1,2.8l-6.7,2.4l1.3,3.8l7.2-2.6l1,2.8
			L162.8,331.1L162.8,331.1z"/>
		<path class="st0" d="M180.7,324.1l-8-14.7l5.7-3.1c1.1-0.6,2.1-0.9,3.1-0.9s1.9,0.2,2.7,0.7s1.5,1.2,2,2.2c0.5,1,0.8,1.9,0.7,2.9
			s-0.4,1.8-0.9,2.6c-0.6,0.8-1.4,1.5-2.6,2.1l-3.8,2.1l-1.4-2.5l3.3-1.8c0.6-0.3,1-0.7,1.3-1c0.3-0.4,0.5-0.8,0.5-1.2
			s-0.1-0.9-0.4-1.4c-0.3-0.5-0.6-0.9-1-1.1c-0.4-0.2-0.8-0.3-1.3-0.3c-0.5,0-1,0.2-1.6,0.5l-2.1,1.1l6.6,12.2L180.7,324.1
			L180.7,324.1z M184.9,313.2l7.2,4.7l-3.4,1.8l-7.2-4.8L184.9,313.2L184.9,313.2z"/>
		<path class="st0" d="M208.8,305.6l-2.8,2.5l-7.2-16.2l3.3-3.1l15.6,8.4l-2.8,2.5l-11.8-6.7l-0.1,0.1L208.8,305.6L208.8,305.6z
			 M204.1,300.9l6.5-6l1.9,2l-6.5,6L204.1,300.9z"/>
		<path class="st0" d="M219.5,277.2c-0.4-0.1-0.8-0.2-1.1-0.3c-0.4,0-0.7,0-1.1,0.1c-0.4,0.1-0.7,0.3-1,0.5
			c-0.3,0.2-0.6,0.5-0.9,0.9c-0.5,0.7-0.8,1.4-0.9,2.1s0.1,1.5,0.6,2.3s1.1,1.5,2,2.2c0.9,0.7,1.8,1.2,2.7,1.4
			c0.9,0.2,1.6,0.2,2.4,0c0.7-0.2,1.4-0.7,1.9-1.4c0.5-0.6,0.8-1.2,0.9-1.9s0.1-1.2-0.2-1.8c-0.2-0.6-0.6-1-1.2-1.5l0.5-0.5
			l-2.6,3.4l-2.1-1.6l4.2-5.5l1.7,1.3c1.2,0.9,2,1.9,2.4,3c0.5,1.1,0.6,2.3,0.4,3.5s-0.7,2.4-1.6,3.5c-0.9,1.2-2.1,2.1-3.3,2.6
			s-2.6,0.6-4,0.4s-2.8-0.9-4.2-2c-1.4-1.1-2.4-2.3-3-3.6c-0.6-1.3-0.8-2.7-0.6-4s0.7-2.6,1.6-3.7c0.6-0.7,1.2-1.4,1.9-1.8
			c0.7-0.5,1.5-0.8,2.2-1s1.6-0.2,2.4-0.1c0.8,0.1,1.5,0.4,2.3,0.8L219.5,277.2L219.5,277.2z"/>
		<path class="st0" d="M234.6,275l-14.7-8l5.4-9.8l2.6,1.4l-3.7,6.7l3.5,1.9l3.4-6.2l2.6,1.4l-3.4,6.2l3.5,1.9l3.7-6.7l2.6,1.4
			L234.6,275L234.6,275z"/>
		<path class="st0" d="M232.3,239.2l15.8,5.6l-1,2.9l-12.3,3.3l0,0.1l9.9,3.5l-1.2,3.3l-15.8-5.6l1-2.9l12.3-3.2l0.1-0.1l-9.9-3.5
			L232.3,239.2L232.3,239.2z"/>
		<path class="st0" d="M236.4,235l-2.9-0.5l2.4-13.4l2.9,0.5l-0.9,5l13.6,2.4l-0.6,3.4l-13.6-2.4L236.4,235L236.4,235z"/>
	</g>
</g>
</svg>
